<?xml version="1.0" standalone="no"?>
<!DOCTYPE svg PUBLIC "-//W3C//DTD SVG 20010904//EN"
 "http://www.w3.org/TR/2001/REC-SVG-20010904/DTD/svg10.dtd">
<svg version="1.0" xmlns="http://www.w3.org/2000/svg"
 width="500.000000pt" height="800.000000pt" viewBox="0 0 500.000000 800.000000"
 preserveAspectRatio="xMidYMid meet">

<g transform="translate(0.000000,800.000000) scale(0.100000,-0.100000)"
fill="#000000" stroke="none">
<path d="M3090 5975 c0 -498 -2 -905 -5 -905 -2 0 -24 6 -47 14 -193 61 -272
71 -548 71 -262 0 -325 -8 -528 -69 -392 -119 -719 -356 -932 -676 -90 -136
-178 -333 -214 -480 -43 -175 -51 -462 -17 -645 41 -220 117 -423 230 -616 36
-62 57 -90 179 -243 141 -176 444 -385 680 -470 221 -79 374 -106 609 -106
191 0 282 10 424 46 218 54 356 116 545 243 360 240 614 601 714 1014 52 216
50 129 50 1993 l0 1734 -570 0 -570 0 0 -905z m-428 -1894 c104 -30 185 -78
263 -156 91 -91 129 -167 150 -296 14 -86 14 -105 0 -168 -8 -39 -19 -79 -24
-88 -5 -10 -19 -38 -30 -63 -29 -63 -129 -179 -189 -218 -27 -17 -83 -46 -123
-63 -67 -29 -83 -31 -189 -32 -133 -2 -197 14 -300 71 -153 84 -253 230 -290
422 -19 95 -19 106 -5 168 48 208 207 370 419 427 78 21 238 19 318 -4z"/>
<path d="M385 1633 c-179 -175 -328 -326 -331 -335 -3 -10 -3 -22 1 -27 11
-18 261 -245 361 -328 317 -263 701 -465 1139 -600 568 -174 1255 -181 1835
-18 203 57 448 152 632 245 173 88 434 256 558 359 121 102 360 323 371 343
10 19 -20 52 -319 351 l-329 329 -161 -149 c-264 -247 -535 -411 -857 -521
-153 -52 -242 -75 -402 -103 -110 -20 -163 -23 -383 -23 -251 0 -282 2 -470
41 -163 33 -385 106 -528 173 -35 17 -64 30 -66 30 -7 0 -192 107 -244 141
-99 64 -257 193 -369 302 l-112 109 -326 -319z"/>
</g>
</svg>
